# Aspose.3D Wavefront OBJ Exporter
# Copyright 2004-2020 Aspose Pty Ltd.
# File created: 04/19/2021 14:57:12

mtllib material.lib

#
# object pCylinder4
#

v 0.70743858814239504 -0.44674229621887208 -2.72565078735351568
v -2.49675583839416504 -0.44674229621887208 -1.6845450401306152
v -2.49675583839416504 -0.44674229621887208 1.68454492092132568
v 0.7074382305145264 -0.44674229621887208 2.72565078735351568
v 2.68773889541625976 -0.44674229621887208 5.5608715854305046E-08
v 0.3090171217918396 5.8540096282958984 -0.95105659961700432
v -0.80901700258255008 5.8540096282958984 -0.58778536319732664
v -0.80901706218719488 5.8540096282958984 0.58778524398803712
v 0.30901697278022768 5.8540096282958984 0.95105654001235968
v 1 5.8540096282958984 0
v 0.42504659295082096 0.375444769859314 -1.46785879135131832
v -1.30052530765533448 0.375444769859314 -0.90718674659729008
v -1.30052542686462404 0.375444769859314 0.90718662738800048
v 0.42504632472991944 0.375444769859314 1.46785879135131832
v 1.4915083646774292 0.375444769859314 3.23890461118026E-08
v 0.36471939086914064 0.9805927872657776 -1.19915783405303956
v 1.23595833778381348 0.9805927872657776 1.5549009191317964E-08
v 0.36471918225288392 0.9805927872657776 1.19915783405303956
v -1.04497551918029785 0.9805927872657776 0.74112027883529664
v -1.0449753999710083 0.9805927872657776 -0.74112039804458624
v 4.4474043647824146E-07 5.79848480224609376 -3.3914921283721924
v -3.3914921283721924 5.79848480224609376 -2.964936811622465E-07
v -1.4824684058112325E-07 5.79848480224609376 3.3914921283721924
v 3.3914921283721924 5.79848480224609376 0
v 6.2895799146645E-07 9.18997669219970704 -4.79629421234130864
v -4.79629421234130864 9.18997669219970704 -4.193053655399126E-07
v -2.096526827699563E-07 9.18997669219970704 4.79629421234130864
v 4.79629421234130864 9.18997669219970704 0
v 4.4474043647824146E-07 12.58146858215332032 -3.3914921283721924
v -3.3914921283721924 12.58146858215332032 -2.964936811622465E-07
v -1.4824684058112325E-07 12.58146858215332032 3.3914921283721924
v 3.3914921283721924 12.58146858215332032 0
v 0 5.847299575805664 0
v 0 13.23090362548828124 0
# 34 vertices

vn -0.20588876307010652 0.7457102537155152 -0.63366073369979856
vn -0.20383289456367492 0.75160151720046992 -0.62733340263366696
vn -0.3075028657913208 0.09886765480041504 -0.94639694690704352
vn -0.30756646394729616 0.09677457809448242 -0.94659256935119632
vn -0.6350340247154236 0.7724841833114624 -2.205417537481935E-08
vn -0.6350339651107788 0.7724841833114624 -2.205417537481935E-08
vn -0.99443221092224128 0.10537835955619812 -6.563782761759285E-08
vn -0.99443221092224128 0.10537835955619812 -6.563782761759285E-08
vn -0.20383293926715852 0.75160157680511472 0.62733346223831176
vn -0.20588883757591248 0.74571031332015984 0.63366079330444336
vn -0.30756658315658568 0.09677457064390182 0.94659256935119632
vn -0.30750298500061036 0.09886765480041504 0.94639682769775392
vn 0.57371038198471072 0.7050625681877136 0.41682493686676024
vn 0.5768741965293884 0.70110744237899784 0.4191236197948456
vn 0.80609059333801264 0.08497899770736694 0.58565908670425416
vn 0.8060109615325928 0.08612547814846039 0.585601270198822
vn 0.5768742561340332 0.70110738277435304 -0.4191236197948456
vn 0.57371044158935544 0.7050626277923584 -0.41682496666908264
vn 0.8060110211372376 0.08612543344497681 -0.58560109138488768
vn 0.80609071254730224 0.08497897535562515 -0.58565902709960936
vn -0.1840408593416214 0.80330431461334224 -0.5664197206497192
vn -0.1840408444404602 0.80330425500869744 -0.5664197206497192
vn -0.20383289456367492 0.75160151720046992 -0.62733340263366696
vn -0.20588876307010652 0.7457102537155152 -0.63366073369979856
vn -0.56642526388168336 0.82411319017410272 -1.2873166532756386E-08
vn -0.56642526388168336 0.82411319017410272 -1.2873166532756386E-08
vn -0.6350339651107788 0.7724841833114624 -2.205417537481935E-08
vn -0.6350340247154236 0.7724841833114624 -2.205417537481935E-08
vn -0.1840408891439438 0.80330431461334224 0.566419780254364
vn -0.1840408742427826 0.80330425500869744 0.5664197206497192
vn -0.20588883757591248 0.74571031332015984 0.63366079330444336
vn -0.20383293926715852 0.75160157680511472 0.62733346223831176
vn 0.52380383014678952 0.76210194826126096 0.38056567311286928
vn 0.52380383014678952 0.76210194826126096 0.38056567311286928
vn 0.5768741965293884 0.70110744237899784 0.4191236197948456
vn 0.57371038198471072 0.7050625681877136 0.41682493686676024
vn 0.52380394935607912 0.76210188865661616 -0.38056570291519168
vn 0.52380388975143432 0.76210188865661616 -0.38056567311286928
vn 0.57371044158935544 0.7050626277923584 -0.41682496666908264
vn 0.5768742561340332 0.70110738277435304 -0.4191236197948456
vn 0.80609071254730224 0.08497897535562515 -0.58565902709960936
vn 0.8060110211372376 0.08612543344497681 -0.58560109138488768
vn 0.80839711427688592 0.0391404889523983 -0.58733475208282472
vn 0.80839711427688592 0.0391404889523983 -0.58733469247817992
vn 0.8060109615325928 0.08612547814846039 0.585601270198822
vn 0.80609059333801264 0.08497899770736694 0.58565908670425416
vn 0.80839705467224128 0.03914051502943039 0.58733481168746952
vn 0.80839705467224128 0.03914051130414009 0.58733487129211424
vn -0.30750298500061036 0.09886765480041504 0.94639682769775392
vn -0.30756658315658568 0.09677457064390182 0.94659256935119632
vn -0.30870622396469116 0.04484029114246368 0.95009994506835936
vn -0.30870619416236876 0.04484029114246368 0.95009994506835936
vn -0.99443221092224128 0.10537835955619812 -6.563782761759285E-08
vn -0.99443221092224128 0.10537835955619812 -6.563782761759285E-08
vn -0.99882990121841424 0.04836081713438034 -6.434901678176175E-08
vn -0.99882990121841424 0.04836081340909004 -6.43490238871891E-08
vn -0.30756646394729616 0.09677457809448242 -0.94659256935119632
vn -0.3075028657913208 0.09886765480041504 -0.94639694690704352
vn -0.3087061047554016 0.04484027996659279 -0.95009994506835936
vn -0.3087061047554016 0.04484027996659279 -0.95010000467300416
vn -0.67859828472137448 -0.28108465671539308 -0.67859840393066408
vn -0.67859828472137448 -0.28108465671539308 -0.67859840393066408
vn -0.67859828472137448 -0.28108468651771544 -0.6785984635353088
vn -0.67859828472137448 -0.28108468651771544 -0.6785984635353088
vn -0.67859840393066408 -0.28108465671539308 0.67859840393066408
vn -0.67859840393066408 -0.28108465671539308 0.67859840393066408
vn -0.67859840393066408 -0.28108465671539308 0.67859840393066408
vn -0.67859840393066408 -0.28108465671539308 0.67859840393066408
vn 0.67859840393066408 -0.28108474612236024 0.67859828472137448
vn 0.6785984635353088 -0.28108474612236024 0.67859828472137448
vn 0.67859840393066408 -0.28108474612236024 0.67859822511672976
vn 0.67859840393066408 -0.28108474612236024 0.67859822511672976
vn 0.67859828472137448 -0.28108462691307068 -0.67859834432601928
vn 0.67859828472137448 -0.28108462691307068 -0.67859834432601928
vn 0.67859834432601928 -0.28108465671539308 -0.67859834432601928
vn 0.67859834432601928 -0.28108465671539308 -0.67859834432601928
vn -0.67859822511672976 0.28108465671539308 -0.6785984635353088
vn -0.67859822511672976 0.28108465671539308 -0.6785984635353088
vn -0.67859828472137448 0.28108465671539308 -0.6785985231399536
vn -0.67859828472137448 0.28108465671539308 -0.6785985231399536
vn -0.67859834432601928 0.28108465671539308 0.67859822511672976
vn -0.67859834432601928 0.28108465671539308 0.67859822511672976
vn -0.67859840393066408 0.28108465671539308 0.67859828472137448
vn -0.67859840393066408 0.28108465671539308 0.67859828472137448
vn 0.67859810590744016 0.28108462691307068 0.6785984635353088
vn 0.67859810590744016 0.28108462691307068 0.6785984635353088
vn 0.67859816551208496 0.28108465671539308 0.6785985231399536
vn 0.67859822511672976 0.28108462691307068 0.6785985231399536
vn 0.6785984635353088 0.28108465671539308 -0.67859816551208496
vn 0.6785984635353088 0.28108465671539308 -0.67859816551208496
vn 0.67859840393066408 0.28108465671539308 -0.67859822511672976
vn 0.67859840393066408 0.28108465671539308 -0.67859822511672976
vn 0.01439032144844532 -0.9997928142547608 0.01439024601131677
vn 0.01439032051712274 -0.99979287385940544 0.01439024414867162
vn 0.01439032051712274 -0.99979287385940544 0.01439024694263935
vn 0.01439032331109047 -0.9997928142547608 -0.01439042668789625
vn 0.01439032424241304 -0.9997928142547608 -0.0143904285505414
vn 0.01439032424241304 -0.99979287385940544 -0.01439042761921882
vn -0.01439032331109047 -0.99979299306869504 -0.01438991632312536
vn -0.01439032424241304 -0.99979293346405024 -0.01438991539180278
vn -0.01439032237976789 -0.99979287385940544 -0.01438991352915763
vn -0.01439032331109047 -0.9997928142547608 0.01439046021550893
vn -0.01439032331109047 -0.9997928142547608 0.01439046021550893
vn -0.01439032331109047 -0.99979287385940544 0.01439046021550893
vn -0.1848318874835968 0.96523278951644896 -0.18483214080333708
vn -0.1848318576812744 0.96523278951644896 -0.18483212590217592
vn -0.1848318725824356 0.96523278951644896 -0.18483214080333708
vn -0.1848319321870804 0.96523278951644896 0.18483184278011324
vn -0.1848319321870804 0.96523278951644896 0.18483184278011324
vn -0.1848319321870804 0.96523272991180416 0.18483182787895204
vn 0.1848319321870804 0.96523284912109376 0.18483154475688936
vn 0.1848319172859192 0.96523284912109376 0.18483151495456696
vn 0.1848319321870804 0.96523284912109376 0.18483151495456696
vn 0.1848319172859192 0.96523278951644896 -0.18483184278011324
vn 0.1848319172859192 0.96523278951644896 -0.18483184278011324
vn 0.1848319321870804 0.96523278951644896 -0.1848318576812744
# 116 vertex normals

vt 0.32286128401756288 0.39457607269287112 0
vt 0.31780028343200684 0.31121110916137696 0
vt 0.87218135595321648 0.29523730278015136 0
vt 0.87577599287033088 0.3619637489318848 0
vt 0.31878772377967836 0.2344379425048828 0
vt 0.87252098321914672 0.23843026161193848 0
vt 0.3185226619243622 0.16496121883392334 0
vt 0.87268716096878048 0.1816227436065674 0
vt 0.32550597190856932 0.07126593589782715 0
vt 0.87424302101135248 0.11491155624389648 0
vt 0.33652189373970032 0.4899660348892212 0
vt 0.88238149881362912 0.43183684349060056 0
vt 0.26457953453063964 0.51014316082000736 0
vt 0.22724181413650512 0.40599775314331056 0
vt 0.21386748552322388 0.31480360031127928 0
vt 0.21431598067283632 0.23278307914733888 0
vt 0.22335010766983032 0.1457068920135498 0
vt 0.25158652663230896 0.05491828918457031 0
vt 0.19863724708557128 0.54079437255859376 0
vt 0.13479310274124146 0.4216270446777344 0
vt 0.12214246392250062 0.3203812837600708 0
vt 0.12317439913749694 0.23229956626892088 0
vt 0.13496217131614686 0.12428510189056396 0
vt 0.1639266312122345 0.03149700164794922 0
vt 0.664486825466156 0.63622838258743288 0
vt 0.8484565019607544 0.63622838258743288 0
vt 0.85019207000732416 0.7627824544906616 0
vt 0.66399437189102176 0.7627824544906616 0
vt 0.8484565019607544 0.8893364667892456 0
vt 0.66448694467544552 0.8893364667892456 0
vt 0.516090989112854 0.6362285017967224 0
vt 0.516090989112854 0.7627824544906616 0
vt 0.516090989112854 0.8893365859985352 0
vt 0.18372559547424316 0.6362285017967224 0
vt 0.367695152759552 0.6362284421920776 0
vt 0.36818769574165344 0.7627824544906616 0
vt 0.18199002742767332 0.7627824544906616 0
vt 0.3676952123641968 0.8893364667892456 0
vt 0.18372565507888792 0.8893365859985352 0
vt 0.27719998359680176 0.97833615541458128 0
vt 0.43163016438484192 0.97833627462387088 0
vt 0.60055190324783328 0.97833615541458128 0
vt 0.75498217344284064 0.97833603620529168 0
vt 0.42472752928733824 0.5347707271575928 0
vt 0.2602069079875946 0.53477084636688232 0
vt 0.60468590259552 0.5347707271575928 0
vt 0.76920658349990848 0.53477084636688232 0
# 47 texture coords

g pCylinder4
usemtl Tree
s 1
f 11/17/1 12/18/2 20/9/3 16/7/4
f 12/13/5 13/14/6 19/1/7 20/11/8
f 13/14/9 14/15/10 18/2/11 19/1/12
f 14/15/13 15/16/14 17/5/15 18/2/16
f 15/16/17 11/17/18 16/7/19 17/5/20
f 1/23/21 2/24/22 12/18/23 11/17/24
f 2/19/25 3/20/26 13/14/27 12/13/28
f 3/20/29 4/21/30 14/15/31 13/14/32
f 4/21/33 5/22/34 15/16/35 14/15/36
f 5/22/37 1/23/38 11/17/39 15/16/40
f 17/5/41 16/7/42 6/8/43 10/6/44
f 18/2/45 17/5/46 10/6/47 9/3/48
f 19/1/49 18/2/50 9/3/51 8/4/52
f 20/11/53 19/1/54 8/4/55 7/12/56
f 16/7/57 20/9/58 7/10/59 6/8/60
f 21/31/61 22/25/62 26/28/63 25/32/64
f 22/25/65 23/26/66 27/27/67 26/28/68
f 23/34/69 24/35/70 28/36/71 27/37/72
f 24/35/73 21/31/74 25/32/75 28/36/76
f 25/32/77 26/28/78 30/30/79 29/33/80
f 26/28/81 27/27/82 31/29/83 30/30/84
f 27/37/85 28/36/86 32/38/87 31/39/88
f 28/36/89 25/32/90 29/33/91 32/38/92
f 22/25/93 21/31/94 33/46/95
f 23/26/96 22/25/97 33/47/98
f 24/35/99 23/34/100 33/45/101
f 21/31/102 24/35/103 33/44/104
f 29/33/105 30/30/106 34/42/107
f 30/30/108 31/29/109 34/43/110
f 31/39/111 32/38/112 34/40/113
f 32/38/114 29/33/115 34/41/116
#31 polygons

